<svg width="120" height="33" viewBox="0 0 120 33" fill="none" xmlns="http://www.w3.org/2000/svg">
<path d="M1.57207e-05 0.528054C0.733349 0.557386 1.67202 0.586719 2.81602 0.616052C3.96002 0.645385 5.10402 0.660052 6.24802 0.660052C7.68535 0.660052 9.04935 0.645385 10.34 0.616052C11.6307 0.586719 12.54 0.572053 13.068 0.572053C16.5294 0.572053 19.1107 1.21739 20.812 2.50805C22.5427 3.79872 23.408 5.45605 23.408 7.48005C23.408 8.50672 23.1293 9.53339 22.572 10.5601C22.044 11.5867 21.1787 12.5107 19.976 13.3321C18.8027 14.1534 17.2627 14.7694 15.356 15.1801V15.2681C17.9373 15.5027 19.976 16.0307 21.472 16.8521C22.9974 17.6441 24.0827 18.5974 24.728 19.7121C25.3733 20.7974 25.696 21.9414 25.696 23.1441C25.696 24.9334 25.2267 26.4734 24.288 27.7641C23.3787 29.0254 22.0587 29.9934 20.328 30.6681C18.5973 31.3427 16.5147 31.6801 14.08 31.6801C13.4347 31.6801 12.452 31.6654 11.132 31.6361C9.81202 31.5774 8.21335 31.5481 6.33602 31.5481C5.13335 31.5481 3.96002 31.5627 2.81602 31.5921C1.67202 31.5921 0.733349 31.6214 1.57207e-05 31.6801V30.8001C0.968016 30.7414 1.68668 30.6241 2.15602 30.4481C2.65468 30.2721 2.97735 29.9201 3.12402 29.3921C3.30002 28.8641 3.38802 28.0721 3.38802 27.0161V5.19205C3.38802 4.10672 3.30002 3.31472 3.12402 2.81605C2.97735 2.28805 2.65468 1.93605 2.15602 1.76005C1.68668 1.55472 0.968016 1.43739 1.57207e-05 1.40805V0.528054ZM12.32 1.40805C11.1173 1.40805 10.3253 1.65739 9.94402 2.15605C9.59202 2.65472 9.41602 3.66672 9.41602 5.19205V27.0161C9.41602 28.0427 9.50402 28.8201 9.68002 29.3481C9.85602 29.8761 10.164 30.2281 10.604 30.4041C11.044 30.5801 11.6893 30.6681 12.54 30.6681C14.9453 30.6681 16.676 30.0081 17.732 28.6881C18.8173 27.3387 19.36 25.4321 19.36 22.9681C19.36 20.7094 18.7733 18.9641 17.6 17.7321C16.456 16.5001 14.5493 15.8841 11.88 15.8841H7.87602C7.87602 15.8841 7.87602 15.7667 7.87602 15.5321C7.87602 15.2681 7.87602 15.1361 7.87602 15.1361H11.66C13.156 15.1361 14.3147 14.8134 15.136 14.1681C15.9573 13.4934 16.5147 12.6134 16.808 11.5281C17.1014 10.4134 17.248 9.22539 17.248 7.96405C17.248 5.79339 16.8667 4.16539 16.104 3.08005C15.3413 1.96539 14.08 1.40805 12.32 1.40805ZM42.2644 0.396053L52.9564 27.9841C53.3964 29.0401 53.8658 29.7734 54.3644 30.1841C54.8924 30.5654 55.3764 30.7707 55.8164 30.8001V31.6801C55.0538 31.6214 54.1298 31.5921 53.0444 31.5921C51.9884 31.5627 50.9031 31.5481 49.7884 31.5481C48.4978 31.5481 47.2951 31.5627 46.1804 31.5921C45.0658 31.5921 44.1564 31.6214 43.4524 31.6801V30.8001C44.9484 30.7414 45.9018 30.4921 46.3124 30.0521C46.7231 29.5827 46.6351 28.6001 46.0484 27.1041L38.3044 6.20405L39.0964 5.23605L32.0564 23.4961C31.4991 24.9627 31.1618 26.1654 31.0444 27.1041C30.9271 28.0427 31.0004 28.7761 31.2644 29.3041C31.5284 29.8321 31.9684 30.2134 32.5844 30.4481C33.2004 30.6534 33.9631 30.7707 34.8724 30.8001V31.6801C33.9338 31.6214 33.0244 31.5921 32.1444 31.5921C31.2644 31.5627 30.3844 31.5481 29.5044 31.5481C28.8591 31.5481 28.2431 31.5627 27.6564 31.5921C27.0991 31.5921 26.6004 31.6214 26.1604 31.6801V30.8001C26.8058 30.6534 27.4364 30.2721 28.0524 29.6561C28.6978 29.0401 29.3138 27.9694 29.9004 26.4441L39.9764 0.396053C40.3284 0.425386 40.7098 0.440052 41.1204 0.440052C41.5311 0.440052 41.9124 0.425386 42.2644 0.396053ZM46.0924 19.0081V19.8881H32.9804L33.4204 19.0081H46.0924ZM67.6205 5.24521e-05C69.2631 5.24521e-05 70.5245 0.176053 71.4045 0.528054C72.2845 0.880052 73.0471 1.26139 73.6925 1.67205C74.0445 1.87739 74.3231 2.03872 74.5285 2.15605C74.7631 2.24405 74.9831 2.28805 75.1885 2.28805C75.4818 2.28805 75.6871 2.12672 75.8045 1.80405C75.9511 1.48139 76.0685 0.997385 76.1565 0.352053H77.1685C77.1391 0.909386 77.0951 1.55472 77.0365 2.28805C77.0071 3.02139 76.9778 4.00405 76.9485 5.23605C76.9485 6.43872 76.9485 8.03739 76.9485 10.0321H75.9365C75.8485 8.53605 75.5111 7.09872 74.9245 5.72005C74.3671 4.34139 73.5605 3.21205 72.5045 2.33205C71.4778 1.42272 70.1578 0.968053 68.5445 0.968053C67.1071 0.968053 65.9045 1.39339 64.9365 2.24405C63.9978 3.09472 63.5285 4.23872 63.5285 5.67605C63.5285 6.90805 63.8365 7.94939 64.4525 8.80005C65.0685 9.62139 65.9338 10.4281 67.0485 11.2201C68.1925 11.9827 69.5418 12.8627 71.0965 13.8601C72.5338 14.7987 73.8245 15.7374 74.9685 16.6761C76.1125 17.5854 77.0071 18.5974 77.6525 19.7121C78.3271 20.8267 78.6645 22.1907 78.6645 23.8041C78.6645 25.7107 78.1951 27.2947 77.2565 28.5561C76.3178 29.8174 75.0565 30.7561 73.4725 31.3721C71.8885 31.9881 70.1578 32.2961 68.2805 32.2961C66.5498 32.2961 65.1711 32.1201 64.1445 31.7681C63.1471 31.4161 62.2818 31.0494 61.5485 30.6681C60.9031 30.2574 60.4045 30.0521 60.0525 30.0521C59.7591 30.0521 59.5391 30.2134 59.3925 30.5361C59.2751 30.8587 59.1725 31.3427 59.0845 31.9881H58.0725C58.1311 31.3134 58.1605 30.5214 58.1605 29.6121C58.1898 28.7027 58.2045 27.5294 58.2045 26.0921C58.2338 24.6254 58.2485 22.7774 58.2485 20.5481H59.2605C59.3778 22.4254 59.7005 24.1854 60.2285 25.8281C60.7858 27.4414 61.6218 28.7467 62.7365 29.7441C63.8805 30.7414 65.3911 31.2401 67.2685 31.2401C68.2951 31.2401 69.2191 31.0641 70.0405 30.7121C70.8911 30.3307 71.5658 29.7587 72.0645 28.9961C72.5631 28.2041 72.8125 27.2067 72.8125 26.0041C72.8125 24.8014 72.5338 23.7454 71.9765 22.8361C71.4191 21.9267 70.6418 21.0761 69.6445 20.2841C68.6471 19.4921 67.4738 18.6854 66.1245 17.8641C64.7458 16.9841 63.4551 16.0894 62.2525 15.1801C61.0498 14.2707 60.0818 13.2441 59.3485 12.1001C58.6445 10.9267 58.2925 9.51872 58.2925 7.87605C58.2925 6.05739 58.7325 4.57605 59.6125 3.43205C60.4925 2.25872 61.6365 1.39339 63.0445 0.836052C64.4818 0.278719 66.0071 5.24521e-05 67.6205 5.24521e-05ZM95.0032 0.528054V1.40805C94.0646 1.43739 93.3459 1.55472 92.8472 1.76005C92.3779 1.93605 92.0552 2.28805 91.8792 2.81605C91.7032 3.31472 91.6152 4.10672 91.6152 5.19205V27.0161C91.6152 28.0721 91.7032 28.8641 91.8792 29.3921C92.0552 29.9201 92.3779 30.2721 92.8472 30.4481C93.3459 30.6241 94.0646 30.7414 95.0032 30.8001V31.6801C94.2699 31.6214 93.3312 31.5921 92.1872 31.5921C91.0432 31.5627 89.8846 31.5481 88.7112 31.5481C87.3912 31.5481 86.1592 31.5627 85.0152 31.5921C83.8712 31.5921 82.9326 31.6214 82.1992 31.6801V30.8001C83.1672 30.7414 83.8859 30.6241 84.3552 30.4481C84.8539 30.2721 85.1766 29.9201 85.3232 29.3921C85.4992 28.8641 85.5872 28.0721 85.5872 27.0161V5.19205C85.5872 4.10672 85.4992 3.31472 85.3232 2.81605C85.1766 2.28805 84.8539 1.93605 84.3552 1.76005C83.8859 1.55472 83.1672 1.43739 82.1992 1.40805V0.528054C82.9326 0.557386 83.8712 0.586719 85.0152 0.616052C86.1592 0.645385 87.3912 0.660052 88.7112 0.660052C89.8846 0.660052 91.0432 0.645385 92.1872 0.616052C93.3312 0.586719 94.2699 0.557386 95.0032 0.528054ZM108.699 5.24521e-05C110.341 5.24521e-05 111.603 0.176053 112.483 0.528054C113.363 0.880052 114.125 1.26139 114.771 1.67205C115.123 1.87739 115.401 2.03872 115.607 2.15605C115.841 2.24405 116.061 2.28805 116.267 2.28805C116.56 2.28805 116.765 2.12672 116.883 1.80405C117.029 1.48139 117.147 0.997385 117.235 0.352053H118.247C118.217 0.909386 118.173 1.55472 118.115 2.28805C118.085 3.02139 118.056 4.00405 118.027 5.23605C118.027 6.43872 118.027 8.03739 118.027 10.0321H117.015C116.927 8.53605 116.589 7.09872 116.003 5.72005C115.445 4.34139 114.639 3.21205 113.583 2.33205C112.556 1.42272 111.236 0.968053 109.623 0.968053C108.185 0.968053 106.983 1.39339 106.015 2.24405C105.076 3.09472 104.607 4.23872 104.607 5.67605C104.607 6.90805 104.915 7.94939 105.531 8.80005C106.147 9.62139 107.012 10.4281 108.127 11.2201C109.271 11.9827 110.62 12.8627 112.175 13.8601C113.612 14.7987 114.903 15.7374 116.047 16.6761C117.191 17.5854 118.085 18.5974 118.731 19.7121C119.405 20.8267 119.743 22.1907 119.743 23.8041C119.743 25.7107 119.273 27.2947 118.335 28.5561C117.396 29.8174 116.135 30.7561 114.551 31.3721C112.967 31.9881 111.236 32.2961 109.359 32.2961C107.628 32.2961 106.249 32.1201 105.223 31.7681C104.225 31.4161 103.36 31.0494 102.627 30.6681C101.981 30.2574 101.483 30.0521 101.131 30.0521C100.837 30.0521 100.617 30.2134 100.471 30.5361C100.353 30.8587 100.251 31.3427 100.163 31.9881H99.1506C99.2092 31.3134 99.2386 30.5214 99.2386 29.6121C99.2679 28.7027 99.2826 27.5294 99.2826 26.0921C99.3119 24.6254 99.3266 22.7774 99.3266 20.5481H100.339C100.456 22.4254 100.779 24.1854 101.307 25.8281C101.864 27.4414 102.7 28.7467 103.815 29.7441C104.959 30.7414 106.469 31.2401 108.347 31.2401C109.373 31.2401 110.297 31.0641 111.119 30.7121C111.969 30.3307 112.644 29.7587 113.143 28.9961C113.641 28.2041 113.891 27.2067 113.891 26.0041C113.891 24.8014 113.612 23.7454 113.055 22.8361C112.497 21.9267 111.72 21.0761 110.723 20.2841C109.725 19.4921 108.552 18.6854 107.203 17.8641C105.824 16.9841 104.533 16.0894 103.331 15.1801C102.128 14.2707 101.16 13.2441 100.427 12.1001C99.7226 10.9267 99.3706 9.51872 99.3706 7.87605C99.3706 6.05739 99.8106 4.57605 100.691 3.43205C101.571 2.25872 102.715 1.39339 104.123 0.836052C105.56 0.278719 107.085 5.24521e-05 108.699 5.24521e-05Z" fill="#0D1B3D"/>
</svg>
