<svg width="320" height="64" viewBox="0 0 320 64" fill="none" xmlns="http://www.w3.org/2000/svg">
<g clip-path="url(#clip0_11_11)">
<path d="M88.584 13.848C89.3173 13.8773 90.256 13.9067 91.4 13.936C92.544 13.9653 93.688 13.98 94.832 13.98C96.2693 13.98 97.6333 13.9653 98.924 13.936C100.215 13.9067 101.124 13.892 101.652 13.892C105.113 13.892 107.695 14.5373 109.396 15.828C111.127 17.1187 111.992 18.776 111.992 20.8C111.992 21.8267 111.713 22.8533 111.156 23.88C110.628 24.9067 109.763 25.8307 108.56 26.652C107.387 27.4733 105.847 28.0893 103.94 28.5V28.588C106.521 28.8227 108.56 29.3507 110.056 30.172C111.581 30.964 112.667 31.9173 113.312 33.032C113.957 34.1173 114.28 35.2613 114.28 36.464C114.28 38.2533 113.811 39.7933 112.872 41.084C111.963 42.3453 110.643 43.3133 108.912 43.988C107.181 44.6627 105.099 45 102.664 45C102.019 45 101.036 44.9853 99.716 44.956C98.396 44.8973 96.7973 44.868 94.92 44.868C93.7173 44.868 92.544 44.8827 91.4 44.912C90.256 44.912 89.3173 44.9413 88.584 45V44.12C89.552 44.0613 90.2707 43.944 90.74 43.768C91.2387 43.592 91.5613 43.24 91.708 42.712C91.884 42.184 91.972 41.392 91.972 40.336V18.512C91.972 17.4267 91.884 16.6347 91.708 16.136C91.5613 15.608 91.2387 15.256 90.74 15.08C90.2707 14.8747 89.552 14.7573 88.584 14.728V13.848ZM100.904 14.728C99.7013 14.728 98.9093 14.9773 98.528 15.476C98.176 15.9747 98 16.9867 98 18.512V40.336C98 41.3627 98.088 42.14 98.264 42.668C98.44 43.196 98.748 43.548 99.188 43.724C99.628 43.9 100.273 43.988 101.124 43.988C103.529 43.988 105.26 43.328 106.316 42.008C107.401 40.6587 107.944 38.752 107.944 36.288C107.944 34.0293 107.357 32.284 106.184 31.052C105.04 29.82 103.133 29.204 100.464 29.204H96.46C96.46 29.204 96.46 29.0867 96.46 28.852C96.46 28.588 96.46 28.456 96.46 28.456H100.244C101.74 28.456 102.899 28.1333 103.72 27.488C104.541 26.8133 105.099 25.9333 105.392 24.848C105.685 23.7333 105.832 22.5453 105.832 21.284C105.832 19.1133 105.451 17.4853 104.688 16.4C103.925 15.2853 102.664 14.728 100.904 14.728ZM130.848 13.716L141.54 41.304C141.98 42.36 142.45 43.0933 142.948 43.504C143.476 43.8853 143.96 44.0907 144.4 44.12V45C143.638 44.9413 142.714 44.912 141.628 44.912C140.572 44.8827 139.487 44.868 138.372 44.868C137.082 44.868 135.879 44.8827 134.764 44.912C133.65 44.912 132.74 44.9413 132.036 45V44.12C133.532 44.0613 134.486 43.812 134.896 43.372C135.307 42.9027 135.219 41.92 134.632 40.424L126.888 19.524L127.68 18.556L120.64 36.816C120.083 38.2827 119.746 39.4853 119.628 40.424C119.511 41.3627 119.584 42.096 119.848 42.624C120.112 43.152 120.552 43.5333 121.168 43.768C121.784 43.9733 122.547 44.0907 123.456 44.12V45C122.518 44.9413 121.608 44.912 120.728 44.912C119.848 44.8827 118.968 44.868 118.088 44.868C117.443 44.868 116.827 44.8827 116.24 44.912C115.683 44.912 115.184 44.9413 114.744 45V44.12C115.39 43.9733 116.02 43.592 116.636 42.976C117.282 42.36 117.898 41.2893 118.484 39.764L128.56 13.716C128.912 13.7453 129.294 13.76 129.704 13.76C130.115 13.76 130.496 13.7453 130.848 13.716ZM134.676 32.328V33.208H121.564L122.004 32.328H134.676ZM156.204 13.32C157.847 13.32 159.108 13.496 159.988 13.848C160.868 14.2 161.631 14.5813 162.276 14.992C162.628 15.1973 162.907 15.3587 163.112 15.476C163.347 15.564 163.567 15.608 163.772 15.608C164.066 15.608 164.271 15.4467 164.388 15.124C164.535 14.8013 164.652 14.3173 164.74 13.672H165.752C165.723 14.2293 165.679 14.8747 165.62 15.608C165.591 16.3413 165.562 17.324 165.532 18.556C165.532 19.7587 165.532 21.3573 165.532 23.352H164.52C164.432 21.856 164.095 20.4187 163.508 19.04C162.951 17.6613 162.144 16.532 161.088 15.652C160.062 14.7427 158.742 14.288 157.128 14.288C155.691 14.288 154.488 14.7133 153.52 15.564C152.582 16.4147 152.112 17.5587 152.112 18.996C152.112 20.228 152.42 21.2693 153.036 22.12C153.652 22.9413 154.518 23.748 155.632 24.54C156.776 25.3027 158.126 26.1827 159.68 27.18C161.118 28.1187 162.408 29.0573 163.552 29.996C164.696 30.9053 165.591 31.9173 166.236 33.032C166.911 34.1467 167.248 35.5107 167.248 37.124C167.248 39.0307 166.779 40.6147 165.84 41.876C164.902 43.1373 163.64 44.076 162.056 44.692C160.472 45.308 158.742 45.616 156.864 45.616C155.134 45.616 153.755 45.44 152.728 45.088C151.731 44.736 150.866 44.3693 150.132 43.988C149.487 43.5773 148.988 43.372 148.636 43.372C148.343 43.372 148.123 43.5333 147.976 43.856C147.859 44.1787 147.756 44.6627 147.668 45.308H146.656C146.715 44.6333 146.744 43.8413 146.744 42.932C146.774 42.0227 146.788 40.8493 146.788 39.412C146.818 37.9453 146.832 36.0973 146.832 33.868H147.844C147.962 35.7453 148.284 37.5053 148.812 39.148C149.37 40.7613 150.206 42.0667 151.32 43.064C152.464 44.0613 153.975 44.56 155.852 44.56C156.879 44.56 157.803 44.384 158.624 44.032C159.475 43.6507 160.15 43.0787 160.648 42.316C161.147 41.524 161.396 40.5267 161.396 39.324C161.396 38.1213 161.118 37.0653 160.56 36.156C160.003 35.2467 159.226 34.396 158.228 33.604C157.231 32.812 156.058 32.0053 154.708 31.184C153.33 30.304 152.039 29.4093 150.836 28.5C149.634 27.5907 148.666 26.564 147.932 25.42C147.228 24.2467 146.876 22.8387 146.876 21.196C146.876 19.3773 147.316 17.896 148.196 16.752C149.076 15.5787 150.22 14.7133 151.628 14.156C153.066 13.5987 154.591 13.32 156.204 13.32ZM183.587 13.848V14.728C182.649 14.7573 181.93 14.8747 181.431 15.08C180.962 15.256 180.639 15.608 180.463 16.136C180.287 16.6347 180.199 17.4267 180.199 18.512V40.336C180.199 41.392 180.287 42.184 180.463 42.712C180.639 43.24 180.962 43.592 181.431 43.768C181.93 43.944 182.649 44.0613 183.587 44.12V45C182.854 44.9413 181.915 44.912 180.771 44.912C179.627 44.8827 178.469 44.868 177.295 44.868C175.975 44.868 174.743 44.8827 173.599 44.912C172.455 44.912 171.517 44.9413 170.783 45V44.12C171.751 44.0613 172.47 43.944 172.939 43.768C173.438 43.592 173.761 43.24 173.907 42.712C174.083 42.184 174.171 41.392 174.171 40.336V18.512C174.171 17.4267 174.083 16.6347 173.907 16.136C173.761 15.608 173.438 15.256 172.939 15.08C172.47 14.8747 171.751 14.7573 170.783 14.728V13.848C171.517 13.8773 172.455 13.9067 173.599 13.936C174.743 13.9653 175.975 13.98 177.295 13.98C178.469 13.98 179.627 13.9653 180.771 13.936C181.915 13.9067 182.854 13.8773 183.587 13.848ZM197.283 13.32C198.925 13.32 200.187 13.496 201.067 13.848C201.947 14.2 202.709 14.5813 203.355 14.992C203.707 15.1973 203.985 15.3587 204.191 15.476C204.425 15.564 204.645 15.608 204.851 15.608C205.144 15.608 205.349 15.4467 205.467 15.124C205.613 14.8013 205.731 14.3173 205.819 13.672H206.831C206.801 14.2293 206.757 14.8747 206.699 15.608C206.669 16.3413 206.64 17.324 206.611 18.556C206.611 19.7587 206.611 21.3573 206.611 23.352H205.599C205.511 21.856 205.173 20.4187 204.587 19.04C204.029 17.6613 203.223 16.532 202.167 15.652C201.14 14.7427 199.82 14.288 198.207 14.288C196.769 14.288 195.567 14.7133 194.599 15.564C193.66 16.4147 193.191 17.5587 193.191 18.996C193.191 20.228 193.499 21.2693 194.115 22.12C194.731 22.9413 195.596 23.748 196.711 24.54C197.855 25.3027 199.204 26.1827 200.759 27.18C202.196 28.1187 203.487 29.0573 204.631 29.996C205.775 30.9053 206.669 31.9173 207.315 33.032C207.989 34.1467 208.327 35.5107 208.327 37.124C208.327 39.0307 207.857 40.6147 206.919 41.876C205.98 43.1373 204.719 44.076 203.135 44.692C201.551 45.308 199.82 45.616 197.943 45.616C196.212 45.616 194.833 45.44 193.807 45.088C192.809 44.736 191.944 44.3693 191.211 43.988C190.565 43.5773 190.067 43.372 189.715 43.372C189.421 43.372 189.201 43.5333 189.055 43.856C188.937 44.1787 188.835 44.6627 188.747 45.308H187.735C187.793 44.6333 187.823 43.8413 187.823 42.932C187.852 42.0227 187.867 40.8493 187.867 39.412C187.896 37.9453 187.911 36.0973 187.911 33.868H188.923C189.04 35.7453 189.363 37.5053 189.891 39.148C190.448 40.7613 191.284 42.0667 192.399 43.064C193.543 44.0613 195.053 44.56 196.931 44.56C197.957 44.56 198.881 44.384 199.703 44.032C200.553 43.6507 201.228 43.0787 201.727 42.316C202.225 41.524 202.475 40.5267 202.475 39.324C202.475 38.1213 202.196 37.0653 201.639 36.156C201.081 35.2467 200.304 34.396 199.307 33.604C198.309 32.812 197.136 32.0053 195.787 31.184C194.408 30.304 193.117 29.4093 191.915 28.5C190.712 27.5907 189.744 26.564 189.011 25.42C188.307 24.2467 187.955 22.8387 187.955 21.196C187.955 19.3773 188.395 17.896 189.275 16.752C190.155 15.5787 191.299 14.7133 192.707 14.156C194.144 13.5987 195.669 13.32 197.283 13.32Z" fill="#0D1B3D"/>
<mask id="mask0_11_11" style="mask-type:luminance" maskUnits="userSpaceOnUse" x="10" y="1" width="58" height="58">
<path d="M68 1H10V59H68V1Z" fill="white"/>
<path d="M68 27.2812H55.3125V32.7188H68V27.2812Z" fill="black"/>
</mask>
<g mask="url(#mask0_11_11)">
<path d="M42.4006 53.6488C55.4138 53.6488 65.9631 43.0995 65.9631 30.0863C65.9631 17.0731 55.4138 6.5238 42.4006 6.5238C29.3874 6.5238 18.8381 17.0731 18.8381 30.0863C18.8381 43.0995 29.3874 53.6488 42.4006 53.6488Z" stroke="#0D1B3D" stroke-width="4"/>
</g>
<path d="M63.5905 33.5905C65.5734 33.5905 67.181 31.983 67.181 30C67.181 28.0171 65.5734 26.4095 63.5905 26.4095C61.6075 26.4095 60 28.0171 60 30C60 31.983 61.6075 33.5905 63.5905 33.5905Z" fill="#0D1B3D"/>
</g>
<defs>
<clipPath id="clip0_11_11">
<rect width="320" height="64" fill="white"/>
</clipPath>
</defs>
</svg>
