<svg width="58" height="58" viewBox="0 0 58 58" fill="none" xmlns="http://www.w3.org/2000/svg">
<mask id="mask0_11_12" style="mask-type:luminance" maskUnits="userSpaceOnUse" x="0" y="0" width="58" height="58">
<path d="M58 0H0V58H58V0Z" fill="white"/>
<path d="M58 26.2812H45.3125V31.7188H58V26.2812Z" fill="black"/>
</mask>
<g mask="url(#mask0_11_12)">
<path d="M32.4006 52.6488C45.4138 52.6488 55.9631 42.0995 55.9631 29.0863C55.9631 16.0731 45.4138 5.5238 32.4006 5.5238C19.3874 5.5238 8.83813 16.0731 8.83813 29.0863C8.83813 42.0995 19.3874 52.6488 32.4006 52.6488Z" stroke="#0D1B3D" stroke-width="4"/>
</g>
<path d="M53.5905 32.5905C55.5734 32.5905 57.181 30.983 57.181 29C57.181 27.0171 55.5734 25.4095 53.5905 25.4095C51.6075 25.4095 50 27.0171 50 29C50 30.983 51.6075 32.5905 53.5905 32.5905Z" fill="#0D1B3D"/>
</svg>
